# xmcd
#
# Track frame offsets:
#	150
#	24762
#	44030
#	66897
#	92690
#	124857
#	158442
#	172017
#	201015
#	221267
#	242977
#	272350
#	292385
#
# Disc length: 4106 seconds
#
# Revision: 9
# Processed by: cddbd v1.5.2PL0 Copyright (c) Steve Scherf et al.
# Submitted via: audiograbber 1.83.01
#
DISCID=ba10080d
DTITLE=Various Artist - Fresh Blues - The inak Blues-Connection - Volume 2
DYEAR=1996
DGENRE=Blues
TTITLE0=Joanna Connor - My Baby's Loving (Live)
TTITLE1=Cadillac Blues Band - Funky Cool
TTITLE2=Bernard Allison - Breakin' Up Somebody's Home (Live)
TTITLE3=Blues Company - Cold Rain
TTITLE4=Guitar Crusher - Message To Man
TTITLE5=Johnny Heartsman and Blues Company - Cold Cold Feeling (Live)
TTITLE6=Luther Allison - One More
TTITLE7=Stan Webb's Chicken Shack - Dr. Brown
TTITLE8=Dave Kelly Band - Crossroads
TTITLE9=Farlow, Davis, York, Hodgkinson, Money, Anderson - Watch The River Flow
TTITLE9=(Live)
TTITLE10=Kilimandjaro Soul-Blues Band - Twenty Centuries Of History
TTITLE11=Pretty Things - Moon Is Rising
TTITLE12=Electric Blues Duo - Texas
EXTD=
EXTT0=
EXTT1=
EXTT2=
EXTT3=
EXTT4=
EXTT5=
EXTT6=
EXTT7=
EXTT8=
EXTT9=
EXTT10=
EXTT11=
EXTT12=
PLAYORDER=
